<svg xmlns="http://www.w3.org/2000/svg" buffered-rendering="static" xmlns:xlink="http://www.w3.org/1999/xlink" viewBox="0 0 400 400" fill="none">
<rect width="400" height="400" rx="200" fill="#61DAFB"/>
<desc>
This file was created by http://www.h2.dion.ne.jp/~defghi/img2svg3/img2svg3.htm at Mon Jul 05 2021 08:00:44 GMT+0900 (日本標準時)
</desc>
<defs>
<g id="rgb" style="isolation:isolate;">
<g id="r" style="mix-blend-mode:screen;">
<path d="M120 0l-12 0 0 34.5 0 34.5 12 0 12 0 0-11.5 0-11.5 10 0 10 0 0 11.5 0 11.5 12 0 12 0 0-34.5 0-34.5-12 0-12 0 0 11.5 0 11.5-10 0-10 0 0-11.5 0-11.5-12 0ZM218 0l-32 0 0 11.5 0 11.5 10 0 10 0 0 23 0 23 11.5 0 11.5 0 0-23 0-23 10.5 0 10.5 0 0-11.5 0-11.5-32 0ZM271.5 0l-12.5 0 0 34.5 0 34.5 11.5 0 11.5 0 .3-16.7 .2-16.8 7.5 11.7c4.1 6.5 7.9 11.7 8.3 11.5 .4-.1 4.1-5.4 8.2-11.7l7.5-11.5 0 16.8 0 16.7 11.5 0 11.5 0 0-34.5 0-34.5-12 0-12 0-7.1 11.8c-3.9 6.4-7.2 11.8-7.3 12 0 .1-3.4-5.2-7.3-11.8l-7.3-12-12.5 0ZM360.5 0l-11.5 0 0 34.5 0 34.5 27.5 0 27.5 0 0-11.5 0-11.5-16 0-16 0 0-23 0-23-11.5 0ZM256 100l-181 0 0 2.3c-.1 1.2 7.2 84.5 16.1 185.2 8.9 100.7 16.3 183.1 16.3 183.2 .1 .2 33.4 9.5 74.1 20.9l74 20.5 73.4-20.3c40.4-11.2 74-20.7 74.6-21.3 .9-.7 6.5-60 17.4-183 8.9-100.1 16.1-183.2 16.1-184.7l0-2.8-181 0Z" style="fill:rgb(255,0,0);"/>
<path d="M120 0l-12 0 0 34.5 0 34.5 12 0 12 0 0-11.5 0-11.5 10 0 10 0 0 11.5 0 11.5 12 0 12 0 0-34.5 0-34.5-12 0-12 0 0 11.5 0 11.5-10 0-10 0 0-11.5 0-11.5-12 0ZM218 0l-32 0 0 11.5 0 11.5 10 0 10 0 0 23 0 23 11.5 0 11.5 0 0-23 0-23 10.5 0 10.5 0 0-11.5 0-11.5-32 0ZM271.5 0l-12.5 0 0 34.5 0 34.5 11.5 0 11.5 0 .3-16.7 .2-16.8 7.5 11.7c4.1 6.5 7.9 11.7 8.3 11.5 .4-.1 4.1-5.4 8.2-11.7l7.5-11.5 0 16.8 0 16.7 11.5 0 11.5 0 0-34.5 0-34.5-12 0-12 0-7.1 11.8c-3.9 6.4-7.2 11.8-7.3 12 0 .1-3.4-5.2-7.3-11.8l-7.3-12-12.5 0ZM360.5 0l-11.5 0 0 34.5 0 34.5 27.5 0 27.5 0 0-11.5 0-11.5-16 0-16 0 0-23 0-23-11.5 0Z" style="fill:rgb(0,0,0);"/>
</g>
<g id="g" style="mix-blend-mode:screen;">
<path d="M120 0l-12 0 0 34.5 0 34.5 12 0 12 0 0-11.5 0-11.5 10 0 10 0 0 11.5 0 11.5 12 0 12 0 0-34.5 0-34.5-12 0-12 0 0 11.5 0 11.5-10 0-10 0 0-11.5 0-11.5-12 0ZM218 0l-32 0 0 11.5 0 11.5 10 0 10 0 0 23 0 23 11.5 0 11.5 0 0-23 0-23 10.5 0 10.5 0 0-11.5 0-11.5-32 0ZM271.5 0l-12.5 0 0 34.5 0 34.5 11.5 0 11.5 0 .3-16.7 .2-16.8 7.5 11.7c4.1 6.5 7.9 11.7 8.3 11.5 .4-.1 4.1-5.4 8.2-11.7l7.5-11.5 0 16.8 0 16.7 11.5 0 11.5 0 0-34.5 0-34.5-12 0-12 0-7.1 11.8c-3.9 6.4-7.2 11.8-7.3 12 0 .1-3.4-5.2-7.3-11.8l-7.3-12-12.5 0ZM360.5 0l-11.5 0 0 34.5 0 34.5 27.5 0 27.5 0 0-11.5 0-11.5-16 0-16 0 0-23 0-23-11.5 0ZM256 100l-181 0 0 2.3c-.1 1.2 7.2 84.5 16.1 185.2 8.9 100.7 16.3 183.1 16.3 183.2 .1 .2 33.4 9.5 74.1 20.9l74 20.5 73.4-20.3c40.4-11.2 74-20.7 74.6-21.3 .9-.7 6.5-60 17.4-183 8.9-100.1 16.1-183.2 16.1-184.7l0-2.8-181 0Z" style="fill:rgb(0,255,0);"/>
<path d="M120 0l-12 0 0 34.5 0 34.5 12 0 12 0 0-11.5 0-11.5 10 0 10 0 0 11.5 0 11.5 12 0 12 0 0-34.5 0-34.5-12 0-12 0 0 11.5 0 11.5-10 0-10 0 0-11.5 0-11.5-12 0ZM218 0l-32 0 0 11.5 0 11.5 10 0 10 0 0 23 0 23 11.5 0 11.5 0 0-23 0-23 10.5 0 10.5 0 0-11.5 0-11.5-32 0ZM271.5 0l-12.5 0 0 34.5 0 34.5 11.5 0 11.5 0 .3-16.7 .2-16.8 7.5 11.7c4.1 6.5 7.9 11.7 8.3 11.5 .4-.1 4.1-5.4 8.2-11.7l7.5-11.5 0 16.8 0 16.7 11.5 0 11.5 0 0-34.5 0-34.5-12 0-12 0-7.1 11.8c-3.9 6.4-7.2 11.8-7.3 12 0 .1-3.4-5.2-7.3-11.8l-7.3-12-12.5 0ZM360.5 0l-11.5 0 0 34.5 0 34.5 27.5 0 27.5 0 0-11.5 0-11.5-16 0-16 0 0-23 0-23-11.5 0ZM256 100l-181 0 0 2.3c-.1 1.2 7.2 84.5 16.1 185.2 8.9 100.7 16.3 183.1 16.3 183.2 .1 .2 33.4 9.5 74.1 20.9l74 20.5 73.4-20.3c40.4-11.2 74-20.7 74.6-21.3 .9-.7 6.5-60 17.4-183 8.9-100.1 16.1-183.2 16.1-184.7l0-2.8-181 0ZM312.3 176.2l56.7-.2 0 2.8c0 1.5-.7 10.8-1.5 20.7-.9 9.9-1.8 19.1-2.1 20.5l-.6 2.5-86.4-.7-86.4-.8 0 3c0 1.7 .7 10.8 1.5 20.3 .9 9.4 1.8 18.7 2 20.5l0.5 3.2 82.5 0c65.3 0 82.5 .3 82.5 1.3 0 .6-2.7 31.4-6 68.2-3.3 36.9-6 67.7-6 68.5 0 1.1-11.6 4.7-46.7 14.4l-46.8 12.9-46-12.8c-25.3-7.1-46.1-12.9-46.2-12.9-.1-.1-1.6-15.2-3.3-33.6-1.6-18.4-3-34.3-3-35.2l0-1.8 22.5 0c17.3 0 22.5 .3 22.5 1.3 0 .6 .7 8.6 1.5 17.7 .9 9.1 1.7 16.6 1.8 16.7 .1 .1 11.5 3.2 25.2 6.9l25 6.7 25-6.7c13.8-3.6 25.3-7 25.6-7.4 .4-.4 1.8-13.5 3.2-29.2 1.4-15.7 2.5-28.6 2.4-28.7-.1-.1-35.5-.6-78.7-1l-78.5-.8-5.6-62c-3.1-34.1-5.8-64.6-6-67.7l-.4-5.8 56.5-.2c31.1-.2 82-.4 113.3-.6Z" style="fill:rgb(0,170,0);"/>
<path d="M120 0l-12 0 0 34.5 0 34.5 12 0 12 0 0-11.5 0-11.5 10 0 10 0 0 11.5 0 11.5 12 0 12 0 0-34.5 0-34.5-12 0-12 0 0 11.5 0 11.5-10 0-10 0 0-11.5 0-11.5-12 0ZM218 0l-32 0 0 11.5 0 11.5 10 0 10 0 0 23 0 23 11.5 0 11.5 0 0-23 0-23 10.5 0 10.5 0 0-11.5 0-11.5-32 0ZM271.5 0l-12.5 0 0 34.5 0 34.5 11.5 0 11.5 0 .3-16.7 .2-16.8 7.5 11.7c4.1 6.5 7.9 11.7 8.3 11.5 .4-.1 4.1-5.4 8.2-11.7l7.5-11.5 0 16.8 0 16.7 11.5 0 11.5 0 0-34.5 0-34.5-12 0-12 0-7.1 11.8c-3.9 6.4-7.2 11.8-7.3 12 0 .1-3.4-5.2-7.3-11.8l-7.3-12-12.5 0ZM360.5 0l-11.5 0 0 34.5 0 34.5 27.5 0 27.5 0 0-11.5 0-11.5-16 0-16 0 0-23 0-23-11.5 0ZM256 100l-181 0 0 2.3c-.1 1.2 7.2 84.5 16.1 185.2 8.9 100.7 16.3 183.1 16.3 183.2 .1 .2 33.4 9.5 74.1 20.9l74 20.5 73.4-20.3c40.4-11.2 74-20.7 74.6-21.3 .9-.7 6.5-60 17.4-183 8.9-100.1 16.1-183.2 16.1-184.7l0-2.8-181 0ZM256 176l114 0-.5 4.3c-.2 2.3-1.2 12.6-2.2 23l-1.8 18.7-86.7 0-86.8 0 .5 5.3c0.3 2.8 1.2 12.7 2 22 .8 9.2 1.5 17.2 1.5 17.7 0 .7 28.3 1 83 1l83 0-.5 3.8c-.3 2-3.3 33.4-6.5 69.7-3.3 36.3-6.1 66.1-6.2 66.2-.2 .2-21.2 6.1-46.8 13.2l-46.5 12.9-46-13c-25.3-7.1-46.2-13.3-46.5-13.7-.3-.5-1.8-15.2-3.3-32.7-1.6-17.6-3-33.4-3.3-35.1l-.4-3.3 23 0 23 0 .5 3.8c0.2 2 1 10 1.6 17.7 .6 7.7 1.4 14.3 1.8 14.7 .3 .3 11.6 3.5 25.1 7.1l24.5 6.6 25-6.6c13.8-3.7 25.1-6.7 25.3-6.7 .1-.1 1.4-12 2.7-26.6 1.4-14.6 2.5-27.7 2.5-29.2l0-2.8-78.5 0c-69.1 0-78.5-.2-78.5-1.5 0-.8-2.7-31.3-6-67.7-3.3-36.5-6-66.9-6-67.5 0-1 23.5-1.3 114-1.3Z" style="fill:rgb(0,85,0);"/>
<path d="M120 0l-12 0 0 34.5 0 34.5 12 0 12 0 0-11.5 0-11.5 10 0 10 0 0 11.5 0 11.5 12 0 12 0 0-34.5 0-34.5-12 0-12 0 0 11.5 0 11.5-10 0-10 0 0-11.5 0-11.5-12 0ZM218 0l-32 0 0 11.5 0 11.5 10 0 10 0 0 23 0 23 11.5 0 11.5 0 0-23 0-23 10.5 0 10.5 0 0-11.5 0-11.5-32 0ZM271.5 0l-12.5 0 0 34.5 0 34.5 11.5 0 11.5 0 .3-16.7 .2-16.8 7.5 11.7c4.1 6.5 7.9 11.7 8.3 11.5 .4-.1 4.1-5.4 8.2-11.7l7.5-11.5 0 16.8 0 16.7 11.5 0 11.5 0 0-34.5 0-34.5-12 0-12 0-7.1 11.8c-3.9 6.4-7.2 11.8-7.3 12 0 .1-3.4-5.2-7.3-11.8l-7.3-12-12.5 0ZM360.5 0l-11.5 0 0 34.5 0 34.5 27.5 0 27.5 0 0-11.5 0-11.5-16 0-16 0 0-23 0-23-11.5 0Z" style="fill:rgb(0,0,0);"/>
</g>
<g id="b" style="mix-blend-mode:screen;">
<path d="M120 0l-12 0 0 34.5 0 34.5 12 0 12 0 0-11.5 0-11.5 10 0 10 0 0 11.5 0 11.5 12 0 12 0 0-34.5 0-34.5-12 0-12 0 0 11.5 0 11.5-10 0-10 0 0-11.5 0-11.5-12 0ZM218 0l-32 0 0 11.5 0 11.5 10 0 10 0 0 23 0 23 11.5 0 11.5 0 0-23 0-23 10.5 0 10.5 0 0-11.5 0-11.5-32 0ZM271.5 0l-12.5 0 0 34.5 0 34.5 11.5 0 11.5 0 .3-16.7 .2-16.8 7.5 11.7c4.1 6.5 7.9 11.7 8.3 11.5 .4-.1 4.1-5.4 8.2-11.7l7.5-11.5 0 16.8 0 16.7 11.5 0 11.5 0 0-34.5 0-34.5-12 0-12 0-7.1 11.8c-3.9 6.4-7.2 11.8-7.3 12 0 .1-3.4-5.2-7.3-11.8l-7.3-12-12.5 0ZM360.5 0l-11.5 0 0 34.5 0 34.5 27.5 0 27.5 0 0-11.5 0-11.5-16 0-16 0 0-23 0-23-11.5 0ZM256 100l-181 0 0 2.3c-.1 1.2 7.2 84.5 16.1 185.2 8.9 100.7 16.3 183.1 16.3 183.2 .1 .2 33.4 9.5 74.1 20.9l74 20.5 73.4-20.3c40.4-11.2 74-20.7 74.6-21.3 .9-.7 6.5-60 17.4-183 8.9-100.1 16.1-183.2 16.1-184.7l0-2.8-181 0Z" style="fill:rgb(0,0,255);"/>
<path d="M120 0l-12 0 0 34.5 0 34.5 12 0 12 0 0-11.5 0-11.5 10 0 10 0 0 11.5 0 11.5 12 0 12 0 0-34.5 0-34.5-12 0-12 0 0 11.5 0 11.5-10 0-10 0 0-11.5 0-11.5-12 0ZM218 0l-32 0 0 11.5 0 11.5 10 0 10 0 0 23 0 23 11.5 0 11.5 0 0-23 0-23 10.5 0 10.5 0 0-11.5 0-11.5-32 0ZM271.5 0l-12.5 0 0 34.5 0 34.5 11.5 0 11.5 0 .3-16.7 .2-16.8 7.5 11.7c4.1 6.5 7.9 11.7 8.3 11.5 .4-.1 4.1-5.4 8.2-11.7l7.5-11.5 0 16.8 0 16.7 11.5 0 11.5 0 0-34.5 0-34.5-12 0-12 0-7.1 11.8c-3.9 6.4-7.2 11.8-7.3 12 0 .1-3.4-5.2-7.3-11.8l-7.3-12-12.5 0ZM360.5 0l-11.5 0 0 34.5 0 34.5 27.5 0 27.5 0 0-11.5 0-11.5-16 0-16 0 0-23 0-23-11.5 0ZM256 100l-181 0 0 2.3c-.1 1.2 7.2 84.5 16.1 185.2 8.9 100.7 16.3 183.1 16.3 183.2 .1 .2 33.4 9.5 74.1 20.9l74 20.5 73.4-20.3c40.4-11.2 74-20.7 74.6-21.3 .9-.7 6.5-60 17.4-183 8.9-100.1 16.1-183.2 16.1-184.7l0-2.8-181 0ZM255.5 177l113.5 0 0 2.3c0 1.2-.7 9.6-1.5 18.7-.8 9.1-1.7 18-2 19.8l-.5 3.2-86.5 0-86.5 0 0 3.3c0 1.7 .7 11.3 1.5 21.2 .9 9.9 1.8 19 2.1 20.3l0.4 2.2 82.8 0 82.7 0-.7 5.2c-.4 2.9-3.2 34.1-6.4 69.3-3.1 35.2-5.9 64.3-6.3 64.7-.3 .3-21.3 6.4-46.6 13.3l-46 12.7-46-12.8c-25.3-7-46.1-12.8-46.2-12.8-.1-.1-1.6-15.2-3.2-33.6-1.7-18.4-3.1-34.3-3.1-35.2l0-1.8 22.5 0 22.5 0 0 1.8c0 .9 .7 8.9 1.5 17.7 .9 8.8 1.6 16.1 1.8 16.2 .1 .1 11.5 3.2 25.2 6.9l25 6.7 25.5-6.7c14-3.7 25.6-6.8 25.6-6.9 .1-.1 1.1-11.4 2.3-25.2 1.2-13.7 2.5-27.1 2.9-29.8l0.7-4.7-79-.3-78.9-.2-5.7-63.5c-3.2-34.9-6-65.4-6.3-67.7l-.6-4.3 113.5 0Z" style="fill:rgb(0,0,170);"/>
<path d="M120 0l-12 0 0 34.5 0 34.5 12 0 12 0 0-11.5 0-11.5 10 0 10 0 0 11.5 0 11.5 12 0 12 0 0-34.5 0-34.5-12 0-12 0 0 11.5 0 11.5-10 0-10 0 0-11.5 0-11.5-12 0ZM218 0l-32 0 0 11.5 0 11.5 10 0 10 0 0 23 0 23 11.5 0 11.5 0 0-23 0-23 10.5 0 10.5 0 0-11.5 0-11.5-32 0ZM271.5 0l-12.5 0 0 34.5 0 34.5 11.5 0 11.5 0 .3-16.7 .2-16.8 7.5 11.7c4.1 6.5 7.9 11.7 8.3 11.5 .4-.1 4.1-5.4 8.2-11.7l7.5-11.5 0 16.8 0 16.7 11.5 0 11.5 0 0-34.5 0-34.5-12 0-12 0-7.1 11.8c-3.9 6.4-7.2 11.8-7.3 12 0 .1-3.4-5.2-7.3-11.8l-7.3-12-12.5 0ZM360.5 0l-11.5 0 0 34.5 0 34.5 27.5 0 27.5 0 0-11.5 0-11.5-16 0-16 0 0-23 0-23-11.5 0ZM256 100l-181 0 0 2.3c-.1 1.2 7.2 84.5 16.1 185.2 8.9 100.7 16.3 183.1 16.3 183.2 .1 .2 33.4 9.5 74.1 20.9l74 20.5 73.4-20.3c40.4-11.2 74-20.7 74.6-21.3 .9-.7 6.5-60 17.4-183 8.9-100.1 16.1-183.2 16.1-184.7l0-2.8-181 0ZM255.3 176c62.2 0 113.4 .1 113.7 .4 .3 .2-.4 10.5-1.5 22.8l-2 22.3-86.7 .3c-68.7 .1-86.8 .5-86.8 1.5 0 .6 .9 10.7 2 22.2 1.1 11.6 2 21.3 2 21.8 0 .4 37.1 .7 82.5 .7l82.5 0 0 2.5c0 1.4-2.7 32.8-6.1 69.8-3.3 36.9-6.1 67.3-6.2 67.4-.1 .1-21.1 5.9-46.7 13l-46.5 12.9-46-12.9c-25.3-7.1-46.2-13.1-46.5-13.4-.3-.3-1.8-16.2-3.5-35.5-1.6-19.2-2.8-35.2-2.5-35.4 .3-.3 10.5-.4 22.8-.4l22.2 0 .5 4.8c0.2 2.6 1 10.8 1.6 18.2l1.1 13.5 25.4 6.8 25.4 6.7 25.1-6.7c21.3-5.8 25.1-7.1 25.4-8.8 .2-1.1 1.3-13 2.5-26.5 1.1-13.5 2.2-25.7 2.5-27.2l0.5-2.8-78.5 0c-61.9 0-78.6-.3-79-1.2-.2-.7-3.1-31.6-6.5-68.5-3.3-37-6-67.5-6-67.8 0-.3 51-.5 113.3-.5Z" style="fill:rgb(0,0,85);"/>
<path d="M120 0l-12 0 0 34.5 0 34.5 12 0 12 0 0-11.5 0-11.5 10 0 10 0 0 11.5 0 11.5 12 0 12 0 0-34.5 0-34.5-12 0-12 0 0 11.5 0 11.5-10 0-10 0 0-11.5 0-11.5-12 0ZM218 0l-32 0 0 11.5 0 11.5 10 0 10 0 0 23 0 23 11.5 0 11.5 0 0-23 0-23 10.5 0 10.5 0 0-11.5 0-11.5-32 0ZM271.5 0l-12.5 0 0 34.5 0 34.5 11.5 0 11.5 0 .3-16.7 .2-16.8 7.5 11.7c4.1 6.5 7.9 11.7 8.3 11.5 .4-.1 4.1-5.4 8.2-11.7l7.5-11.5 0 16.8 0 16.7 11.5 0 11.5 0 0-34.5 0-34.5-12 0-12 0-7.1 11.8c-3.9 6.4-7.2 11.8-7.3 12 0 .1-3.4-5.2-7.3-11.8l-7.3-12-12.5 0ZM360.5 0l-11.5 0 0 34.5 0 34.5 27.5 0 27.5 0 0-11.5 0-11.5-16 0-16 0 0-23 0-23-11.5 0ZM256 100l-181 0 0 2.3c-.1 1.2 7.2 84.5 16.1 185.2 8.9 100.7 16.3 183.1 16.3 183.2 .1 .2 33.4 9.5 74.1 20.9l74 20.5 73.4-20.3c40.4-11.2 74-20.7 74.6-21.3 .9-.7 6.5-60 17.4-183 8.9-100.1 16.1-183.2 16.1-184.7l0-2.8-181 0ZM256 176c62.7 0 114 .3 114 .8 0 .4-.9 9.9-2 21.2-1.1 11.3-2 21.3-2 22.3l0 1.7-87 0-87 0 .5 4.3c0.3 2.3 1.2 11.6 2 20.7 .8 9.1 1.5 17.5 1.5 18.8l0 2.2 83 0 83 0-.6 4.3c-.3 2.3-3.2 33.7-6.4 69.7-3.3 36-6.1 65.6-6.2 65.7-.2 .2-21.2 6.1-46.8 13.2l-46.5 12.9-46.5-13-46.5-13-2.8-31.6c-1.5-17.5-3-33.6-3.2-35.9l-.5-4.3 23 0c12.7 0 23 .1 23.1 .3 .1 .1 .9 8.3 1.8 18.1l1.6 17.9 25 6.8 25 6.7 24.5-6.5c13.5-3.6 24.9-6.8 25.3-7.1 .4-.4 1.9-12.4 3.2-26.7 1.4-14.3 2.5-27.2 2.5-28.7l0-2.8-78.5 0c-43.2 0-78.5-.3-78.5-.7 0-.5-2.7-30.5-6-66.8-3.3-36.3-6-67-6-68.2l0-2.3 114 0Z" style="fill:rgb(0,0,0);"/>
</g>
</g>
</defs>
<use xlink:href="#rgb"/>
</svg>